<svg xmlns="http://www.w3.org/2000/svg" xmlns:xlink="http://www.w3.org/1999/xlink" style="isolation:isolate" viewBox="0 0 32 32" width="32pt" height="32pt"><defs><clipPath id="_clipPath_8Wx9b6FNlSXIV72xYDgrjRyiojWSC2JG"><rect width="32" height="32"/></clipPath></defs><g clip-path="url(#_clipPath_8Wx9b6FNlSXIV72xYDgrjRyiojWSC2JG)"><g><path d=" M 25.069 8.69 L 30.597 9.064 L 31 3.927 L 29.105 3.798 L 28.947 5.82 C 25.912 2.768 21.639 1 17.102 1 C 8.203 1 0.962 7.729 0.962 16 C 0.962 24.271 8.203 31 17.102 31 C 17.543 31 17.982 30.983 18.417 30.95 C 23.292 30.581 27.742 28.171 30.507 24.345 L 28.931 23.36 C 26.272 27.039 21.85 29.235 17.102 29.235 C 9.25 29.235 2.862 23.298 2.862 16 C 2.862 8.702 9.25 2.765 17.102 2.765 C 21.14 2.765 24.942 4.355 27.625 7.093 L 25.207 6.929 L 25.069 8.69 Z " fill="rgb(94,183,63)"/><path d=" M 10.745 19.181 C 10.745 18.428 12.447 17.94 13.689 17.399 C 15.115 16.779 16.112 16.067 16.112 14.536 C 16.112 12.728 14.763 10.919 12.34 10.919 C 10.254 10.919 8.705 12.464 8.031 13.124 L 9.549 14.523 C 10.101 14.034 11.187 13 12 13 C 12.982 12.953 13.672 13.398 13.689 14.536 C 13.689 15.644 12.049 16.146 10.745 16.647 C 8.537 17.505 8 18.64 8 21.081 L 16.127 21.081 L 16.127 19.181 L 10.745 19.181 Z " fill="rgb(94,183,63)"/><path d=" M 23.932 16.902 L 23.932 10.919 L 22.225 10.919 L 17.102 16.902 L 17.102 18.948 L 21.448 18.948 L 21.448 21.081 L 23.932 21.081 L 23.932 18.948 L 25.298 18.948 L 25.298 16.902 L 23.932 16.902 Z  M 21.728 16.902 L 19.57 16.902 L 21.728 14.354 L 21.728 16.902 Z " fill="rgb(94,183,63)"/></g></g></svg>