<svg width="61" height="33" viewBox="0 0 61 33" fill="none" xmlns="http://www.w3.org/2000/svg">
<path d="M16.6332 9.22899C16.7992 9.41262 16.8791 9.69684 16.8791 10.0769C16.8791 10.4569 16.7896 10.7379 16.614 10.9215C16.4336 11.1036 16.1589 11.1946 15.7885 11.1946H14.1566V8.95116H15.8683C16.2132 8.94956 16.4671 9.04377 16.6332 9.22899ZM61 17.7699L60.703 22.3813L59.4304 23.2675V26.1081H57.1551C57.2924 26.5759 57.369 27.0725 57.369 27.5802C57.369 30.4991 54.9931 32.8734 52.0743 32.8734C49.1554 32.8734 46.7795 30.4991 46.7795 27.5802C46.7795 27.2465 46.813 26.9192 46.8769 26.6046C46.5112 26.7132 46.1935 26.702 46.1935 26.702H36.4854C36.1884 26.1128 36.8782 25.5237 36.8782 25.5237H45.5069C46.4857 24.8371 45.4079 24.3501 45.4079 24.3501H36.5844C35.6024 24.6455 35.406 26.2118 35.406 26.2118H15.6927V24.4491C15.6927 24.4491 15.1722 24.4491 14.3578 24.4491C15.0061 25.3289 15.3957 26.4114 15.3957 27.5898C15.3957 30.5087 13.0198 32.883 10.1009 32.883C7.18211 32.883 4.80617 30.5055 4.80617 27.585C4.80617 26.4098 5.19577 25.3273 5.84404 24.4443C5.5726 24.4443 5.31712 24.4443 5.09837 24.4443C2.35199 24.4459 0 23.5613 0 23.5613V20.4237H3.62618H3.80023C3.63576 20.1235 3.54475 19.7722 3.54475 19.4018V2.27682C3.54475 1.08565 4.51077 0.119629 5.70353 0.119629H33.0444C34.2356 0.119629 35.2032 1.08406 35.2032 2.27682V19.4002C35.2032 19.769 35.109 20.1171 34.9477 20.4237H36.9772V2.37581H48.4529L54.241 10.516C59.1414 11.3016 58.359 13.1649 58.359 13.1649H57.0832V15.6159H59.5342V17.1839L61 17.7699ZM6.92503 15.8203H7.64197H8.35411V12.3267H11.3831V11.5858V10.8497H8.35411V8.98469H11.7775V8.24381V7.50771H6.92503V15.8203ZM13.0405 27.5771C13.0405 25.9516 11.7216 24.6327 10.0993 24.6327C8.47386 24.6327 7.15496 25.9516 7.15496 27.5771C7.15496 29.2009 8.47386 30.5198 10.0993 30.5198C11.7216 30.5182 13.0405 29.1993 13.0405 27.5771ZM18.4295 15.6047C18.3177 15.5473 18.2427 15.4515 18.2028 15.3157C18.1644 15.18 18.1485 14.9373 18.1485 14.586V13.6551C18.1485 12.8632 17.9233 12.2995 17.481 11.9626C17.4283 11.9227 17.3661 11.8844 17.3006 11.8508C17.4523 11.7678 17.5864 11.664 17.7078 11.5395C18.1117 11.1291 18.3113 10.5607 18.3113 9.83256C18.3113 9.0757 18.1117 8.49929 17.711 8.1033C17.307 7.70731 16.7242 7.50931 15.953 7.50931H13.4397H12.726V15.8203H13.4429H14.1566V12.5853H15.731C16.0935 12.5853 16.3521 12.6859 16.5006 12.8855C16.6507 13.0835 16.7242 13.414 16.7146 13.8771L16.7066 14.3529C16.7034 14.6084 16.7194 14.8782 16.7497 15.1609C16.7833 15.4435 16.8216 15.6622 16.8711 15.8171H18.4279L18.4295 15.6047ZM24.751 14.3433H21.0082V12.2021H24.3087V11.4612V10.7251H21.0082V8.98469H24.62V8.24381V7.50771H19.5791V15.8187H24.751V15.0762V14.3433ZM31.0836 14.3433H27.3393V12.2021H30.6397V11.4612V10.7251H27.3393V8.98469H30.9543V8.24381V7.50771H25.9102V15.8187H31.0836V15.0762V14.3433ZM42.7557 11.787H39.3259V13.1601C43.8383 13.1617 42.7557 11.787 42.7557 11.787ZM51.5857 11.6896L47.2697 4.23601H39.7187L39.6197 10.4138L46.5783 10.3164L47.3639 11.688L51.5857 11.6896ZM55.0154 27.5771C55.0154 25.9516 53.6965 24.6327 52.0727 24.6327C50.4488 24.6327 49.1299 25.9516 49.1299 27.5771C49.1299 29.2009 50.4488 30.5198 52.0727 30.5198C53.6949 30.5182 55.0154 29.1993 55.0154 27.5771Z" fill="#5EB73F"/>
</svg>