<svg width="51" height="51" viewBox="0 0 51 51" fill="none" xmlns="http://www.w3.org/2000/svg">
<g clip-path="url(#clip0)">
<path d="M47.569 24.4212H44.5357C43.8452 22.4896 42.7325 20.7602 41.3084 19.3464L45.9865 17.2813C46.6548 16.9863 47.0208 16.249 46.8308 15.5437C46.2666 13.4502 44.3623 11.9102 42.1001 11.9102H38.2417C36.023 11.9102 34.1496 13.392 33.546 15.4242H29.471C27.9406 21.0777 22.7707 25.2489 16.6451 25.2489C12.9059 25.2489 9.52304 23.6943 7.10641 21.1976C6.42578 22.1687 5.86826 23.2331 5.45737 24.3683C4.23686 24.1013 3.23329 23.1359 2.95269 21.8786C2.77299 21.0732 1.97382 20.5654 1.16898 20.7458C0.363631 20.9256 -0.143581 21.7242 0.0362141 22.5296C0.341817 23.8989 1.1109 25.1422 2.20173 26.0302C2.9483 26.6381 3.82616 27.0611 4.75632 27.2734C4.6839 27.8428 4.64645 28.4233 4.64645 29.0125V30.4612C4.64645 35.9521 7.88835 40.6816 12.5538 42.8248V46.1175C12.5538 47.9096 14.0066 49.3624 15.7987 49.3624C17.5907 49.3624 19.0435 47.9096 19.0435 46.1175V44.0493H31.1991V46.1175C31.1991 47.9096 32.6519 49.3624 34.444 49.3624C36.2361 49.3624 37.6889 47.9096 37.6889 46.1175V42.6982C41.1001 41.0388 43.7125 37.9823 44.7894 34.2683H47.5688C49.4639 34.2683 51.0001 32.7248 51.0001 30.8208V27.8685C51.0003 25.9647 49.4641 24.4212 47.569 24.4212ZM36.5439 25.2839C35.7217 25.2839 35.0551 24.6174 35.0551 23.7951C35.0551 22.9728 35.7216 22.3063 36.5439 22.3063C37.3662 22.3063 38.0326 22.9728 38.0326 23.7951C38.0326 24.6174 37.3662 25.2839 36.5439 25.2839Z" fill="#5EB73F"/>
<path d="M16.6445 1.6377C10.9656 1.6377 6.3457 6.26337 6.3457 11.949C6.3457 17.6347 10.9657 22.2604 16.6445 22.2604C22.3232 22.2604 26.9431 17.6347 26.9431 11.949C26.9431 6.26317 22.323 1.6377 16.6445 1.6377ZM15.6881 10.3735H17.6008C19.7584 10.3735 21.5136 12.13 21.5136 14.289C21.5136 16.2653 20.0424 17.9034 18.1386 18.1665V18.7277C18.1386 19.5529 17.4696 20.2219 16.6445 20.2219C15.8193 20.2219 15.1503 19.5529 15.1503 18.7277V18.2044H14.7691C13.1184 18.2044 11.7752 16.8607 11.7752 15.2089C11.7752 14.3838 12.4442 13.7148 13.2694 13.7148C14.0945 13.7148 14.7635 14.3838 14.7635 15.2089L17.6007 15.2161C18.1105 15.2161 18.5252 14.8001 18.5252 14.2889C18.5252 13.7777 18.1105 13.3618 17.6007 13.3618H15.688C13.5305 13.3618 11.7752 11.6053 11.7752 9.4463C11.7752 7.46995 13.2464 5.83186 15.1503 5.5687V5.17036C15.1503 4.34519 15.8193 3.67621 16.6445 3.67621C17.4696 3.67621 18.1386 4.34519 18.1386 5.17036V5.53074H18.5197C20.1704 5.53074 21.5136 6.87458 21.5136 8.52631C21.5136 9.35148 20.8446 10.0205 20.0194 10.0205C19.1943 10.0205 18.5253 9.35148 18.5253 8.52631C18.5253 8.52392 18.5251 8.52292 18.5251 8.52292L15.6881 8.51904C15.1783 8.51904 14.7636 8.93501 14.7636 9.4463C14.7636 9.9575 15.1783 10.3735 15.6881 10.3735Z" fill="#5EB73F"/>
</g>
<defs>
<clipPath id="clip0">
<rect width="51" height="51" fill="white"/>
</clipPath>
</defs>
</svg>