<svg width="411" height="118" viewBox="0 0 411 118" fill="none" xmlns="http://www.w3.org/2000/svg">
<g clip-path="url(#clip0)">
<path d="M108.643 114.584C126.671 114.584 141.286 99.9695 141.286 81.9413C141.286 63.9131 126.671 49.2983 108.643 49.2983C90.6148 49.2983 76 63.9131 76 81.9413C76 99.9695 90.6148 114.584 108.643 114.584Z" fill="#5EB73F"/>
<path d="M116.849 83.219H111.025V104.558H102.2V83.219H98.0024V75.7196H102.2V70.8666C102.2 67.3962 103.848 61.9619 111.103 61.9619L117.64 61.9893V69.2687H112.897C112.119 69.2687 111.025 69.6574 111.025 71.3129V75.7266H117.62L116.849 83.219Z" fill="white"/>
</g>
<g clip-path="url(#clip1)">
<path d="M222.366 82.9815C222.366 102.137 206.838 117.665 187.683 117.665C168.528 117.665 153 102.137 153 82.9815C153 63.8263 168.528 48.2983 187.683 48.2983C206.838 48.2983 222.366 63.8263 222.366 82.9815Z" fill="url(#paint0_linear)"/>
<path d="M197.66 106.962H177.707C169.985 106.962 163.703 100.68 163.703 92.9579V73.0051C163.703 65.2832 169.985 59.0013 177.707 59.0013H197.66C205.382 59.0013 211.663 65.2832 211.663 73.0051V92.9579C211.663 100.68 205.382 106.962 197.66 106.962ZM177.707 63.0658C172.226 63.0658 167.768 67.5245 167.768 73.0051V92.9579C167.768 98.4385 172.226 102.897 177.707 102.897H197.66C203.14 102.897 207.599 98.4385 207.599 92.9579V73.0051C207.599 67.5245 203.14 63.0658 197.66 63.0658H177.707Z" fill="white"/>
<path d="M187.683 95.9877C180.512 95.9877 174.677 90.153 174.677 82.9815C174.677 75.81 180.512 69.9753 187.683 69.9753C194.855 69.9753 200.69 75.81 200.69 82.9815C200.69 90.153 194.855 95.9877 187.683 95.9877ZM187.683 74.0398C182.753 74.0398 178.742 78.0508 178.742 82.9815C178.742 87.9123 182.753 91.9233 187.683 91.9233C192.614 91.9233 196.625 87.9123 196.625 82.9815C196.625 78.0508 192.614 74.0398 187.683 74.0398Z" fill="white"/>
<path d="M202.563 69.9617C202.563 70.9889 201.73 71.8219 200.703 71.8219C199.676 71.8219 198.843 70.9889 198.843 69.9617C198.843 68.9344 199.676 68.1014 200.703 68.1014C201.73 68.1014 202.563 68.9344 202.563 69.9617Z" fill="white"/>
</g>
<g clip-path="url(#clip2)">
<path d="M262.577 87.7585L273.195 81.6429L262.577 75.5273V87.7585Z" fill="#5EB73F"/>
<path d="M266.643 49C248.618 49 234 63.6175 234 81.643C234 99.6684 248.618 114.286 266.643 114.286C284.668 114.286 299.286 99.6684 299.286 81.643C299.286 63.6175 284.668 49 266.643 49ZM287.04 81.6763C287.04 81.6763 287.04 88.2965 286.2 91.4888C285.729 93.2361 284.352 94.6138 282.604 95.084C279.412 95.9243 266.643 95.9243 266.643 95.9243C266.643 95.9243 253.907 95.9243 250.682 95.0506C248.934 94.5804 247.557 93.2022 247.086 91.4549C246.246 88.2965 246.246 81.643 246.246 81.643C246.246 81.643 246.246 75.0233 247.086 71.8311C247.556 70.0837 248.968 68.6721 250.682 68.202C253.874 67.3617 266.643 67.3617 266.643 67.3617C266.643 67.3617 279.412 67.3617 282.604 68.2353C284.352 68.7055 285.729 70.0837 286.2 71.8311C287.074 75.0233 287.04 81.6763 287.04 81.6763Z" fill="#5EB73F"/>
</g>
<path d="M1.312 8.8H23.2C23.464 8.8 23.692 8.896 23.884 9.088C24.076 9.28 24.172 9.508 24.172 9.772V33.028C24.172 33.292 24.076 33.52 23.884 33.712C23.692 33.904 23.464 34 23.2 34H16.144C15.88 34 15.652 33.904 15.46 33.712C15.268 33.52 15.172 33.292 15.172 33.028V16.72H9.34V33.028C9.34 33.292 9.244 33.52 9.052 33.712C8.86 33.904 8.632 34 8.368 34H1.312C1.048 34 0.82 33.916 0.628 33.748C0.436 33.556 0.34 33.316 0.34 33.028V9.772C0.34 9.508 0.436 9.28 0.628 9.088C0.82 8.896 1.048 8.8 1.312 8.8ZM31.9942 11.104C34.2022 9.328 37.1182 8.44 40.7422 8.44C44.3662 8.44 47.2702 9.34 49.4542 11.14C51.6622 12.916 52.7662 15.424 52.7662 18.664V24.28C52.7662 27.568 51.6742 30.076 49.4902 31.804C47.3302 33.508 44.4142 34.36 40.7422 34.36C37.0702 34.36 34.1422 33.508 31.9582 31.804C29.7982 30.076 28.7182 27.568 28.7182 24.28V18.664C28.7182 15.4 29.8102 12.88 31.9942 11.104ZM38.7982 26.62C39.2782 27.1 39.9262 27.34 40.7422 27.34C41.5582 27.34 42.2062 27.1 42.6862 26.62C43.1662 26.14 43.4062 25.408 43.4062 24.424V18.376C43.4062 17.416 43.1662 16.696 42.6862 16.216C42.2062 15.712 41.5582 15.46 40.7422 15.46C39.9262 15.46 39.2782 15.712 38.7982 16.216C38.3182 16.696 38.0782 17.416 38.0782 18.376V24.424C38.0782 25.408 38.3182 26.14 38.7982 26.62ZM61.338 8.8H81.066C81.33 8.8 81.558 8.896 81.75 9.088C81.942 9.28 82.038 9.508 82.038 9.772V26.08H83.586C83.85 26.08 84.078 26.176 84.27 26.368C84.462 26.56 84.558 26.788 84.558 27.052V37.456C84.558 37.72 84.462 37.948 84.27 38.14C84.078 38.332 83.85 38.428 83.586 38.428H76.53C76.266 38.428 76.038 38.332 75.846 38.14C75.654 37.948 75.558 37.72 75.558 37.456V34H65.766V37.456C65.766 37.72 65.67 37.948 65.478 38.14C65.286 38.332 65.058 38.428 64.794 38.428H57.738C57.474 38.428 57.246 38.332 57.054 38.14C56.862 37.972 56.766 37.744 56.766 37.456V27.052C56.766 26.788 56.862 26.56 57.054 26.368C57.246 26.176 57.474 26.08 57.738 26.08H57.882C58.602 26.08 59.19 25.84 59.646 25.36C60.126 24.88 60.366 24.196 60.366 23.308V9.772C60.366 9.508 60.462 9.28 60.654 9.088C60.846 8.896 61.074 8.8 61.338 8.8ZM73.038 16.72H69.366V23.344C69.366 24.688 69.258 25.6 69.042 26.08H73.038V16.72ZM90.2591 8.8H112.147C112.411 8.8 112.639 8.896 112.831 9.088C113.023 9.28 113.119 9.508 113.119 9.772V33.028C113.119 33.292 113.023 33.52 112.831 33.712C112.639 33.904 112.411 34 112.147 34H105.091C104.827 34 104.599 33.904 104.407 33.712C104.215 33.52 104.119 33.292 104.119 33.028V16.72H98.2871V33.028C98.2871 33.292 98.1911 33.52 97.9991 33.712C97.8071 33.904 97.5791 34 97.3151 34H90.2591C89.9951 34 89.7671 33.916 89.5751 33.748C89.3831 33.556 89.2871 33.316 89.2871 33.028V9.772C89.2871 9.508 89.3831 9.28 89.5751 9.088C89.7671 8.896 89.9951 8.8 90.2591 8.8ZM119.357 8.8H125.873C126.137 8.8 126.365 8.896 126.557 9.088C126.749 9.28 126.845 9.508 126.845 9.772V19.6L132.929 9.628C133.241 9.076 133.733 8.8 134.405 8.8H140.093C140.357 8.8 140.585 8.896 140.777 9.088C140.969 9.28 141.065 9.508 141.065 9.772V33.028C141.065 33.292 140.969 33.52 140.777 33.712C140.585 33.904 140.357 34 140.093 34H133.577C133.313 34 133.085 33.904 132.893 33.712C132.701 33.52 132.605 33.292 132.605 33.028V23.992L126.521 33.172C126.161 33.724 125.669 34 125.045 34H119.357C119.093 34 118.865 33.904 118.673 33.712C118.481 33.52 118.385 33.292 118.385 33.028V9.772C118.385 9.508 118.481 9.28 118.673 9.088C118.865 8.896 119.093 8.8 119.357 8.8ZM154.963 18.376V24.424C154.963 26.368 155.851 27.34 157.627 27.34C158.995 27.34 159.895 26.692 160.327 25.396C160.447 24.988 160.591 24.712 160.759 24.568C160.951 24.424 161.251 24.352 161.659 24.352H169.003C169.219 24.352 169.399 24.436 169.543 24.604C169.711 24.748 169.795 24.928 169.795 25.144C169.795 27.232 169.195 28.984 167.995 30.4C165.787 33.04 162.343 34.36 157.663 34.36C153.991 34.36 151.063 33.556 148.879 31.948C146.695 30.316 145.603 27.82 145.603 24.46V18.34C145.603 15.052 146.719 12.58 148.951 10.924C151.183 9.268 154.087 8.44 157.663 8.44C162.343 8.44 165.787 9.76 167.995 12.4C169.195 13.816 169.795 15.568 169.795 17.656C169.795 17.872 169.711 18.064 169.543 18.232C169.399 18.376 169.219 18.448 169.003 18.448H161.659C161.275 18.448 160.987 18.376 160.795 18.232C160.627 18.088 160.471 17.812 160.327 17.404C159.871 16.108 158.971 15.46 157.627 15.46C155.851 15.46 154.963 16.432 154.963 18.376ZM185.504 34H174.776C174.512 34 174.284 33.904 174.092 33.712C173.9 33.52 173.804 33.292 173.804 33.028V9.772C173.804 9.508 173.9 9.28 174.092 9.088C174.284 8.896 174.512 8.8 174.776 8.8H182.192C182.456 8.8 182.684 8.896 182.876 9.088C183.068 9.28 183.164 9.508 183.164 9.772V16.648H185.504C188.984 16.648 191.684 17.344 193.604 18.736C195.548 20.128 196.52 22.276 196.52 25.18C196.52 28.084 195.548 30.28 193.604 31.768C191.66 33.256 188.96 34 185.504 34ZM182.984 23.308V27.304H185.504C186.08 27.304 186.5 27.1 186.764 26.692C187.028 26.284 187.16 25.78 187.16 25.18C187.16 24.58 186.992 24.124 186.656 23.812C186.32 23.476 185.936 23.308 185.504 23.308H182.984ZM206.168 34H198.824C198.56 34 198.332 33.904 198.14 33.712C197.948 33.52 197.852 33.292 197.852 33.028V9.772C197.852 9.508 197.948 9.28 198.14 9.088C198.332 8.896 198.56 8.8 198.824 8.8H206.168C206.432 8.8 206.66 8.896 206.852 9.088C207.044 9.28 207.14 9.508 207.14 9.772V33.028C207.14 33.292 207.044 33.52 206.852 33.712C206.66 33.904 206.432 34 206.168 34ZM225.499 17.8C225.763 17.488 225.895 17.116 225.895 16.684C225.895 16.252 225.763 15.868 225.499 15.532C225.259 15.172 224.899 14.992 224.419 14.992H221.395V18.268H224.419C224.899 18.268 225.259 18.112 225.499 17.8ZM221.395 24.28V27.808H224.743C225.295 27.808 225.703 27.628 225.967 27.268C226.255 26.884 226.399 26.464 226.399 26.008V25.972C226.399 25.516 226.243 25.12 225.931 24.784C225.643 24.448 225.247 24.28 224.743 24.28H221.395ZM225.679 34H213.367C213.103 34 212.875 33.904 212.683 33.712C212.491 33.52 212.395 33.292 212.395 33.028V9.772C212.395 9.508 212.491 9.28 212.683 9.088C212.875 8.896 213.103 8.8 213.367 8.8H225.319C228.727 8.8 231.235 9.424 232.843 10.672C234.475 11.896 235.291 13.756 235.291 16.252V16.36C235.291 17.392 234.991 18.316 234.391 19.132C233.791 19.924 233.131 20.5 232.411 20.86C233.371 21.244 234.175 21.928 234.823 22.912C235.495 23.872 235.831 24.928 235.831 26.08C235.831 31.36 232.447 34 225.679 34ZM248.076 8.8H255.888C256.752 8.8 257.292 9.196 257.508 9.988L265.536 32.956C265.56 33.028 265.572 33.148 265.572 33.316C265.572 33.46 265.488 33.616 265.32 33.784C265.176 33.928 264.996 34 264.78 34H258.12C257.4 34 256.932 33.7 256.716 33.1L255.852 30.724H248.112L247.248 33.1C247.032 33.7 246.564 34 245.844 34H239.184C238.968 34 238.776 33.928 238.608 33.784C238.464 33.616 238.392 33.46 238.392 33.316C238.392 33.148 238.404 33.028 238.428 32.956L246.456 9.988C246.672 9.196 247.212 8.8 248.076 8.8ZM249.948 23.704H254.016L251.964 17.008L249.948 23.704ZM270.017 8.8H276.533C276.797 8.8 277.025 8.896 277.217 9.088C277.409 9.28 277.505 9.508 277.505 9.772V19.6L283.589 9.628C283.901 9.076 284.393 8.8 285.065 8.8H290.753C291.017 8.8 291.245 8.896 291.437 9.088C291.629 9.28 291.725 9.508 291.725 9.772V33.028C291.725 33.292 291.629 33.52 291.437 33.712C291.245 33.904 291.017 34 290.753 34H284.237C283.973 34 283.745 33.904 283.553 33.712C283.361 33.52 283.265 33.292 283.265 33.028V23.992L277.181 33.172C276.821 33.724 276.329 34 275.705 34H270.017C269.753 34 269.525 33.904 269.333 33.712C269.141 33.52 269.045 33.292 269.045 33.028V9.772C269.045 9.508 269.141 9.28 269.333 9.088C269.525 8.896 269.753 8.8 270.017 8.8ZM281.753 1.384C281.753 0.927998 281.981 0.699997 282.437 0.699997H286.001C286.457 0.699997 286.685 0.927998 286.685 1.384C286.685 3.088 286.145 4.456 285.065 5.488C283.985 6.496 282.389 7 280.277 7C278.189 7 276.605 6.484 275.525 5.452C274.445 4.42 273.905 3.064 273.905 1.384C273.905 0.927998 274.133 0.699997 274.589 0.699997H278.153C278.609 0.699997 278.837 0.927998 278.837 1.384C278.837 2.704 279.317 3.364 280.277 3.364C281.261 3.364 281.753 2.704 281.753 1.384ZM296.695 8.8H317.791C318.055 8.8 318.283 8.896 318.475 9.088C318.667 9.28 318.763 9.508 318.763 9.772V15.568C318.763 15.832 318.667 16.06 318.475 16.252C318.283 16.444 318.055 16.54 317.791 16.54H311.815V33.028C311.815 33.292 311.719 33.52 311.527 33.712C311.335 33.904 311.107 34 310.843 34H303.643C303.379 34 303.151 33.904 302.959 33.712C302.767 33.52 302.671 33.292 302.671 33.028V16.54H296.695C296.431 16.54 296.203 16.444 296.011 16.252C295.819 16.06 295.723 15.832 295.723 15.568V9.772C295.723 9.508 295.819 9.28 296.011 9.088C296.203 8.896 296.431 8.8 296.695 8.8ZM331.416 26.98H342.504C342.768 26.98 342.996 27.076 343.188 27.268C343.38 27.46 343.476 27.688 343.476 27.952V33.028C343.476 33.292 343.38 33.52 343.188 33.712C342.996 33.904 342.768 34 342.504 34H323.748C323.484 34 323.256 33.904 323.064 33.712C322.872 33.52 322.776 33.292 322.776 33.028V9.772C322.776 9.508 322.872 9.28 323.064 9.088C323.256 8.896 323.484 8.8 323.748 8.8H342.216C342.48 8.8 342.708 8.896 342.9 9.088C343.092 9.28 343.188 9.508 343.188 9.772V14.848C343.188 15.112 343.092 15.34 342.9 15.532C342.708 15.724 342.48 15.82 342.216 15.82H331.416V18.088H341.424C341.688 18.088 341.916 18.184 342.108 18.376C342.3 18.568 342.396 18.796 342.396 19.06V23.74C342.396 24.004 342.3 24.232 342.108 24.424C341.916 24.616 341.688 24.712 341.424 24.712H331.416V26.98ZM357.034 18.376V24.424C357.034 26.368 357.922 27.34 359.698 27.34C361.066 27.34 361.966 26.692 362.398 25.396C362.518 24.988 362.662 24.712 362.83 24.568C363.022 24.424 363.322 24.352 363.73 24.352H371.074C371.29 24.352 371.47 24.436 371.614 24.604C371.782 24.748 371.866 24.928 371.866 25.144C371.866 27.232 371.266 28.984 370.066 30.4C367.858 33.04 364.414 34.36 359.734 34.36C356.062 34.36 353.134 33.556 350.95 31.948C348.766 30.316 347.674 27.82 347.674 24.46V18.34C347.674 15.052 348.79 12.58 351.022 10.924C353.254 9.268 356.158 8.44 359.734 8.44C364.414 8.44 367.858 9.76 370.066 12.4C371.266 13.816 371.866 15.568 371.866 17.656C371.866 17.872 371.782 18.064 371.614 18.232C371.47 18.376 371.29 18.448 371.074 18.448H363.73C363.346 18.448 363.058 18.376 362.866 18.232C362.698 18.088 362.542 17.812 362.398 17.404C361.942 16.108 361.042 15.46 359.698 15.46C357.922 15.46 357.034 16.432 357.034 18.376ZM387.575 34H376.847C376.583 34 376.355 33.904 376.163 33.712C375.971 33.52 375.875 33.292 375.875 33.028V9.772C375.875 9.508 375.971 9.28 376.163 9.088C376.355 8.896 376.583 8.8 376.847 8.8H384.263C384.527 8.8 384.755 8.896 384.947 9.088C385.139 9.28 385.235 9.508 385.235 9.772V16.648H387.575C391.055 16.648 393.755 17.344 395.675 18.736C397.619 20.128 398.591 22.276 398.591 25.18C398.591 28.084 397.619 30.28 395.675 31.768C393.731 33.256 391.031 34 387.575 34ZM385.055 23.308V27.304H387.575C388.151 27.304 388.571 27.1 388.835 26.692C389.099 26.284 389.231 25.78 389.231 25.18C389.231 24.58 389.063 24.124 388.727 23.812C388.391 23.476 388.007 23.308 387.575 23.308H385.055ZM403.195 25.792H409.459C409.723 25.792 409.951 25.888 410.143 26.08C410.335 26.272 410.431 26.5 410.431 26.764V33.028C410.431 33.292 410.335 33.52 410.143 33.712C409.951 33.904 409.723 34 409.459 34H403.195C402.931 34 402.703 33.904 402.511 33.712C402.319 33.52 402.223 33.292 402.223 33.028V26.764C402.223 26.5 402.319 26.272 402.511 26.08C402.703 25.888 402.931 25.792 403.195 25.792ZM403.195 8.8H409.459C409.723 8.8 409.951 8.896 410.143 9.088C410.335 9.28 410.431 9.508 410.431 9.772V23.38C410.431 23.644 410.335 23.872 410.143 24.064C409.951 24.256 409.723 24.352 409.459 24.352H403.195C402.931 24.352 402.703 24.256 402.511 24.064C402.319 23.872 402.223 23.644 402.223 23.38V9.772C402.223 9.508 402.319 9.28 402.511 9.088C402.703 8.896 402.931 8.8 403.195 8.8Z" fill="#5EB73F"/>
<defs>
<linearGradient id="paint0_linear" x1="153" y1="82.9815" x2="222.366" y2="82.9815" gradientUnits="userSpaceOnUse">
<stop stop-color="#5EB73F"/>
<stop offset="1" stop-color="#5EB73F"/>
</linearGradient>
<clipPath id="clip0">
<rect width="65.2859" height="65.2859" fill="white" transform="translate(76 49.2983)"/>
</clipPath>
<clipPath id="clip1">
<rect width="69.3663" height="69.3663" fill="white" transform="translate(153 48.2983)"/>
</clipPath>
<clipPath id="clip2">
<rect width="65.2859" height="65.2859" fill="white" transform="translate(234 49)"/>
</clipPath>
</defs>
</svg>
